<?xml version="1.0" encoding="UTF-8"?><svg id="a" xmlns="http://www.w3.org/2000/svg" viewBox="0 0 800 600.7"><path d="M283.43,342.05c-6.74,2.29-13.42,4.78-20.24,6.81-9.56,2.85-19.24,5.32-28.84,8.05-2.5,.71-4.81,.73-6.09-1.72-1.25-2.4-.6-4.83,1.46-6.65,9.18-8.1,18.32-16.24,27.63-24.2,4.74-4.05,10.17-7.35,14.6-11.7,3.95-3.88,7.07-8.66,10.36-13.18,44.91-61.56,101.51-109.01,170.51-141.56,1.48-.7,2.85-2.23,3.64-3.71,17.68-33.2,44.38-55.37,81.05-64.14,23.24-5.56,44.47-.3,61.84,16.98,6.86,6.83,11.63,15.12,14.71,24.28,1.17,3.49,3,4.34,6.46,3.83,8.34-1.22,16.72-2.24,25.11-3.08,9.76-.98,19.45,.03,29.1,1.36,.09,.4,.17,.79,.26,1.19-9.14,3.13-18.24,6.36-27.42,9.37-6.01,1.97-12.12,3.67-18.2,5.43-5.69,1.65-9.85,5.19-12.99,10.11-6.08,9.56-9.04,20.22-11.06,31.2-1.74,9.46-5.89,17.51-13.02,24.05-.8,.73-1.16,2.54-.93,3.69,2.84,14.29,3.27,28.72,2.05,43.16-2.59,30.72-12.21,59.02-30.67,83.89-22.78,30.69-52.4,51.97-89.21,62.81-7.82,2.3-15.89,3.74-24.03,5.63,.26,.4,.59,1.14,1.12,1.69,16.46,16.99,32.9,34,49.45,50.9,3.25,3.32,7.02,6.11,10.43,9.28,3.87,3.6,8.38,3.85,13.34,3.46,8.38-.65,16.82-1.36,25.2-1.08,9.62,.32,18.36,6.81,20.86,14.22-.2,.1-.48,.34-.6,.28-12.44-6.08-25.23-4.21-38.07-1.79-7.92,1.49-15.82,2.04-23.29-1.81-2.75-1.42-4.76-.57-7.05,1.5,12.5,3.3,24.11,7.64,29.15,22.14-11.34-7.74-23.34-9.25-35.66-9.72-8.78-.33-17.57-.74-26.31-1.56-2.8-.26-5.7-1.54-8.14-3.05-2.74-1.69-5.18-1.76-7.87-.41-6.28,3.15-13.03,3.38-19.74,2.64-9.02-1-17.96-2.17-27.34,1.4,1.76-5.15,4.56-8.55,9.06-9.98,3.56-1.14,7.34-1.88,11.07-2.11,5.74-.35,11.52-.02,17.28-.16,1.32-.03,2.63-.82,3.94-1.27-.45-1.32-.59-2.9-1.41-3.93-7.98-9.92-15.96-19.84-24.17-29.57-11.54-13.67-23.2-27.23-34.99-40.67-2-2.28-4.71-4.25-7.48-5.49-10.08-4.52-19.25-10.36-26.49-18.67-5.94-6.81-13.22-8.12-21.51-7.38-16.73,1.5-32.35,7.13-47.85,13.06-36.92,14.13-70.3,34.4-101.04,59.11-8.87,7.13-17.48,14.58-26.22,21.86-.94,.78-1.92,1.52-2.95,2.17-5.78,3.6-9.45,2.12-11.02-5.07-4.08,2.79-7.98,5.38-11.8,8.08-5.29,3.74-10.48,7.63-15.8,11.32-1.47,1.02-3.38,2.36-4.88,2.14-2.43-.35-5.2-1.35-6.91-3.02-1.86-1.82-1.17-4.69,.47-6.75,2.13-2.68,4.41-5.26,6.8-7.71,21.75-22.36,45.44-42.56,70.49-61.03,33.67-24.82,67.98-48.76,102.02-73.08,.68-.49,1.35-1,2.02-1.5l-.17-.37Zm29.23-14.91c44.63-15.32,85.03-38.63,123.84-65.05-22.09,18.77-46.43,34.17-71.74,48.13,33.4-8.57,61.33-26.93,87.21-49.02-6.18,10.1-14.78,17.72-23.93,24.74-18.37,14.08-39,24.14-60.46,32.39-21.05,8.09-41.95,16.39-61.84,27.09-45.73,24.59-89.06,52.87-130.1,84.64-20.44,15.82-40.55,32.06-58.39,50.89-1.13,1.19-2.22,2.41-3.32,3.62,.67,.23,1,.14,1.24-.06,15.24-12.09,30.41-24.29,45.72-36.28,56.77-44.46,118.15-81.13,184.56-109.33,24.17-10.26,48.37-20.5,70.68-34.56,19.48-12.27,37.63-26.12,51.34-44.97,10.24-14.07,15.64-29.36,10.79-47.72-.94,3.86-1.5,7.1-2.53,10.17-5.99,18-16.8,31.09-36.49,34.49-7.45,1.29-14.95,2.01-21.86,5.5-25.26,12.75-50.45,25.67-75.9,38.02-24.17,11.72-48.62,22.85-71.51,37.02-1.26,.78-2.5,1.57-3.75,2.35l.48,.82c53.66-23.03,105.51-49.83,157.4-76.59-34.62,25.71-73.31,44.22-111.44,63.72Zm294.32-185.26c-5.73,0-11.74-.63-17.54,.21-4.33,.63-6.71-.9-9.37-3.68-9.13-9.58-20.21-14-33.62-12.91-11.25,.92-21.8,4.01-31.76,9.07-10.38,5.27-19.44,12.28-25.58,22.43-3.66,6.06-5.3,12.7-4.96,20.5,9.84,.41,19.37,.81,29.17,1.22-.97,.69-1.85,1.05-2.32,1.71-.73,1-1.19,2.2-1.77,3.32,1.15,.51,2.26,1.34,3.44,1.44,1.8,.16,3.66-.1,5.48-.31,4.38-.53,8.75-1.13,13.12-1.71l.84,1.09c-2.17,1.38-4.34,2.77-6.5,4.15l.96,1.99c7.15,.13,14.35,.88,21.43,.25,14.16-1.26,25.24-8.9,34.4-19.17,8.51-9.54,16.37-19.65,24.58-29.6Zm-199.87,272.35c13.97,17.67,27.47,34.88,41.14,51.96,4.65,5.82,9.65,11.37,14.68,16.87,.96,1.05,3.19,2.14,4.23,1.72,7.16-2.88,14.49-4.19,22.19-3.79,2.73,.14,3.28-1.37,1.86-3.48-1.36-2.02-2.71-4.15-4.49-5.76-20.38-18.5-40.82-36.92-61.3-55.31-1.12-1-2.68-2.02-4.08-2.1-4.59-.26-9.21-.1-14.23-.1Zm-23.52-152.3c-31.05,5.11-59.02,16.96-82.98,37.6,28.16-11.43,56.35-22.79,82.98-37.6Zm17.31-.12c-3.99,1.96-7.9,4.1-11.98,5.86-26.15,11.32-52.36,22.5-78.5,33.86-6.75,2.93-13.29,6.35-19.93,9.54l.54,1.15c38.28-13.11,75.21-29.22,109.86-50.41Z"/><path d="M561.09,135.69c6.72,0,12.09,5.4,12.11,12.16,.02,6.67-5.54,12.32-12.07,12.25-6.61-.07-12.11-5.63-12.09-12.24,.02-6.8,5.35-12.18,12.05-12.18Zm.24,15.73c1.02-1.33,2.69-2.56,2.91-4.02,.38-2.49-1.26-4.13-3.92-4.05-2.2,.07-3.61,1.16-3.62,3.62,0,2.56,1.21,3.8,4.62,4.45Z"/></svg>